<svg xmlns="http://www.w3.org/2000/svg" xmlns:xlink="http://www.w3.org/1999/xlink" width="1080" zoomAndPan="magnify" viewBox="0 0 810 809.999993" height="1080" preserveAspectRatio="xMidYMid meet" version="1.0"><defs><clipPath id="144b3173e0"><path d="M 25.363281 25.363281 L 784.363281 25.363281 L 784.363281 784.363281 L 25.363281 784.363281 Z M 25.363281 25.363281 " clip-rule="nonzero"/></clipPath></defs><g clip-path="url(#144b3173e0)"><path fill="#12003b" d="M 404.996094 25.363281 C 195.25 25.363281 25.363281 195.25 25.363281 404.996094 C 25.363281 614.746094 195.25 784.632812 404.996094 784.632812 C 614.746094 784.632812 784.632812 614.746094 784.632812 404.996094 C 784.632812 195.25 614.746094 25.363281 404.996094 25.363281 Z M 404.996094 708.707031 C 237.199219 708.707031 101.289062 572.796875 101.289062 404.996094 C 101.289062 237.199219 237.199219 101.289062 404.996094 101.289062 C 572.796875 101.289062 708.707031 237.199219 708.707031 404.996094 C 708.707031 572.796875 572.796875 708.707031 404.996094 708.707031 Z M 404.996094 708.707031 " fill-opacity="1" fill-rule="nonzero"/></g></svg>