<svg xmlns="http://www.w3.org/2000/svg" xmlns:xlink="http://www.w3.org/1999/xlink" width="1080" zoomAndPan="magnify" viewBox="0 0 810 809.999993" height="1080" preserveAspectRatio="xMidYMid meet" version="1.0"><defs><clipPath id="7938db52ed"><path d="M 19.050781 19.050781 L 362 19.050781 L 362 362 L 19.050781 362 Z M 19.050781 19.050781 " clip-rule="nonzero"/></clipPath><clipPath id="e2444ce382"><path d="M 448 19.050781 L 790.800781 19.050781 L 790.800781 362 L 448 362 Z M 448 19.050781 " clip-rule="nonzero"/></clipPath><clipPath id="d4f3317c53"><path d="M 19.050781 448 L 362 448 L 362 790.800781 L 19.050781 790.800781 Z M 19.050781 448 " clip-rule="nonzero"/></clipPath><clipPath id="fce977200c"><path d="M 448 448 L 790.800781 448 L 790.800781 790.800781 L 448 790.800781 Z M 448 448 " clip-rule="nonzero"/></clipPath></defs><g clip-path="url(#7938db52ed)"><path fill="#12003b" d="M 190.152344 361.511719 C 284.582031 361.511719 361.511719 284.582031 361.511719 190.152344 C 361.511719 95.980469 284.582031 19.050781 190.152344 19.050781 C 95.980469 19.050781 19.050781 95.980469 19.050781 190.152344 C 19.050781 284.582031 95.980469 361.511719 190.152344 361.511719 Z M 190.152344 361.511719 " fill-opacity="1" fill-rule="nonzero"/></g><g clip-path="url(#e2444ce382)"><path fill="#12003b" d="M 619.835938 19.050781 C 525.410156 19.050781 448.476562 95.980469 448.476562 190.152344 C 448.476562 284.582031 525.410156 361.511719 619.835938 361.511719 C 714.007812 361.511719 790.941406 284.582031 790.941406 190.152344 C 790.941406 95.980469 714.007812 19.050781 619.835938 19.050781 Z M 619.835938 19.050781 " fill-opacity="1" fill-rule="nonzero"/></g><g clip-path="url(#d4f3317c53)"><path fill="#12003b" d="M 190.152344 790.941406 C 284.582031 790.941406 361.511719 714.007812 361.511719 619.835938 C 361.511719 525.410156 284.582031 448.480469 190.152344 448.480469 C 95.980469 448.476562 19.050781 525.410156 19.050781 619.835938 C 19.050781 714.007812 95.980469 790.941406 190.152344 790.941406 Z M 190.152344 790.941406 " fill-opacity="1" fill-rule="nonzero"/></g><g clip-path="url(#fce977200c)"><path fill="#12003b" d="M 619.835938 448.476562 C 525.410156 448.476562 448.476562 525.410156 448.476562 619.835938 C 448.476562 714.007812 525.410156 790.941406 619.835938 790.941406 C 714.007812 790.941406 790.941406 714.007812 790.941406 619.835938 C 790.941406 525.410156 714.007812 448.476562 619.835938 448.476562 Z M 619.835938 448.476562 " fill-opacity="1" fill-rule="nonzero"/></g></svg>